<!DOCTYPE svg PUBLIC "-//W3C//DTD SVG 20010904//EN" "http://www.w3.org/TR/2001/REC-SVG-20010904/DTD/svg10.dtd">
<svg version="1.0" xmlns="http://www.w3.org/2000/svg" width="966px" height="310px" viewBox="0 0 9660 3100" preserveAspectRatio="xMidYMid meet">
<g id="layer101" fill="#0e0e0e" stroke="none">
<path d="M2206 3089 c-38 -5 -105 -19 -150 -30 -45 -12 -91 -23 -103 -26 -30 -7 -71 -46 -78 -75 -6 -23 31 -115 72 -179 22 -35 13 -63 -48 -137 l-52 -63 -43 -217 c-24 -119 -46 -227 -49 -239 -3 -13 -16 -25 -30 -29 -40 -10 -75 -59 -75 -105 0 -29 7 -47 29 -71 25 -28 36 -33 76 -33 40 0 51 5 76 33 33 37 39 93 13 130 -15 22 -12 28 83 174 86 133 98 149 100 123 1 -17 4 -105 5 -196 l3 -166 -25 -12 c-33 -14 -60 -60 -60 -101 0 -49 55 -100 108 -100 95 0 139 111 74 184 -19 21 -18 24 51 204 39 100 71 181 73 179 2 -2 22 -90 44 -197 l40 -193 -29 -30 c-56 -54 -47 -138 19 -172 37 -19 63 -19 100 0 66 34 75 118 19 172 l-29 30 40 193 c22 107 42 195 44 197 2 2 34 -79 73 -179 69 -180 70 -183 51 -204 -65 -73 -21 -184 74 -184 53 0 108 51 108 100 0 42 -28 87 -63 103 -24 10 -27 16 -23 41 3 16 6 103 6 195 1 192 -12 193 116 -6 82 -127 85 -133 70 -155 -26 -37 -20 -93 13 -130 25 -28 36 -33 76 -33 40 0 51 5 76 33 22 24 29 42 29 71 0 46 -35 95 -75 105 -14 4 -27 16 -30 29 -3 12 -25 120 -49 239 -38 190 -47 222 -72 253 -96 120 -98 126 -59 190 14 22 25 52 25 67 0 15 5 30 10 33 6 3 10 21 10 40 0 56 -31 80 -145 109 -175 44 -351 56 -519 35z"/>
<path d="M515 3060 c-82 -13 -160 -37 -219 -67 l-49 -25 44 -20 c113 -50 185 -63 364 -63 179 0 251 13 364 63 l44 20 -50 26 c-116 58 -349 89 -498 66z"/>
<path d="M8720 3011 c0 -181 97 -388 223 -477 l28 -20 -28 -54 c-23 -45 -28 -67 -28 -130 0 -83 22 -139 75 -195 27 -27 28 -34 20 -70 -29 -127 96 -248 221 -215 48 13 107 63 125 107 16 38 18 106 4 132 -7 14 -3 24 21 47 94 89 112 238 43 340 -24 35 -25 38 -7 47 10 5 44 36 76 69 92 93 147 228 161 396 l6 72 -470 0 -470 0 0 -49z"/>
<path d="M5495 3037 c-15 -12 -17 -23 -13 -73 8 -88 40 -145 144 -254 51 -54 104 -120 117 -146 20 -39 47 -133 47 -160 0 -3 -22 15 -49 41 -27 26 -79 69 -117 96 -38 27 -101 83 -140 124 -63 66 -75 75 -107 75 -23 0 -41 -6 -49 -17 -9 -12 -28 -18 -59 -20 -59 -1 -93 -24 -113 -74 -28 -70 -21 -140 24 -235 45 -97 175 -326 225 -397 29 -40 33 -52 25 -73 -6 -14 -10 -47 -10 -74 0 -40 4 -51 21 -60 32 -18 63 -4 107 45 42 48 76 58 87 26 8 -27 81 -91 103 -91 27 0 54 34 61 77 6 36 7 36 76 50 104 21 224 83 293 151 158 155 230 385 239 771 5 190 4 205 -13 218 -27 19 -872 19 -899 0z"/>
<path d="M6976 3037 c-14 -10 -16 -25 -14 -87 l3 -75 53 -3 52 -3 0 -70 c0 -53 4 -71 15 -75 9 -4 27 -25 40 -49 25 -41 25 -45 25 -268 l0 -226 -60 -52 -60 -52 0 -108 c0 -128 1 -129 110 -129 87 0 110 11 110 50 0 30 0 30 60 30 57 0 60 -1 60 -24 0 -46 22 -56 130 -56 108 0 130 10 130 56 0 23 3 24 60 24 60 0 60 0 60 -30 0 -39 23 -50 110 -50 109 0 110 1 110 129 l0 109 -60 52 -60 52 0 226 c0 222 0 226 25 267 13 24 31 45 40 49 11 4 15 22 15 75 l0 70 53 3 52 3 3 75 c2 62 0 77 -14 87 -26 19 -1022 19 -1048 0z"/>
<path d="M3473 3025 c-56 -24 -53 -71 10 -119 49 -37 98 -47 252 -52 77 -3 151 -8 165 -11 23 -5 21 -7 -18 -18 -66 -20 -110 -54 -116 -91 -9 -43 11 -127 39 -168 l23 -34 -39 -41 c-49 -52 -74 -131 -66 -208 12 -118 107 -252 224 -319 l50 -29 -18 -35 c-39 -72 -9 -153 67 -179 52 -18 88 -9 131 34 27 27 33 40 33 77 0 25 -8 56 -19 74 l-19 31 43 21 c70 34 161 126 197 200 62 126 46 268 -39 342 l-34 30 25 33 c14 19 28 47 32 63 l6 29 -312 -3 -311 -3 3 23 3 23 294 3 c263 2 296 1 313 -14 17 -16 18 -15 18 20 0 21 -5 46 -11 57 -12 22 -102 69 -134 69 -17 0 -17 2 -5 10 8 5 65 10 125 10 163 0 229 13 295 58 46 31 55 42 55 67 0 22 -8 33 -33 48 -31 18 -39 19 -85 7 -40 -10 -379 -29 -532 -30 -126 -1 -496 20 -518 29 -36 14 -54 14 -94 -4z"/>
<path d="M220 2867 c0 -51 2 -58 15 -47 11 9 27 7 79 -14 194 -78 489 -78 680 0 33 13 68 22 77 19 15 -5 17 1 16 45 -2 41 -5 49 -17 43 -56 -25 -187 -64 -250 -74 -45 -7 -131 -9 -215 -6 -150 5 -246 25 -336 69 l-49 25 0 -60z"/>
<path d="M220 2738 c0 -55 1 -58 19 -48 15 7 32 4 73 -15 177 -81 502 -80 687 1 41 18 57 21 67 13 8 -6 14 -17 14 -23 0 -6 16 -20 35 -30 48 -26 136 -117 162 -168 26 -51 31 -144 9 -187 -21 -40 -88 -97 -132 -112 -56 -19 -150 -15 -217 9 -79 29 -179 102 -225 166 l-38 53 -44 -55 c-120 -149 -342 -228 -466 -164 -171 87 -162 298 16 424 33 23 60 45 60 49 0 21 -24 17 -63 -10 -99 -68 -167 -176 -167 -266 0 -107 88 -228 186 -255 75 -21 175 -8 255 33 l69 35 0 -51 c0 -62 34 -126 85 -157 31 -19 35 -26 35 -65 l0 -44 -42 -3 c-38 -3 -43 -6 -43 -28 0 -22 5 -25 42 -28 39 -3 42 -5 45 -34 4 -42 34 -60 54 -34 8 11 14 30 14 42 0 20 6 23 43 26 37 3 42 6 42 28 0 22 -5 25 -42 28 l-43 3 0 41 c0 36 5 46 40 76 49 41 80 98 80 146 l0 35 58 -26 c86 -40 201 -44 274 -11 154 71 212 212 143 348 -31 61 -114 147 -178 184 -42 25 -42 26 -41 76 1 27 1 50 -1 50 -1 0 -27 -11 -56 -25 -210 -95 -552 -94 -751 3 l-58 29 0 -59z"/>
<path d="M966 2608 c-41 -16 -209 -48 -253 -48 -9 0 -13 -17 -13 -52 0 -61 34 -121 109 -191 73 -69 141 -99 232 -105 62 -4 82 -1 116 16 127 65 126 199 -2 311 -41 35 -125 92 -134 90 -4 -1 -28 -10 -55 -21z"/>
<path d="M243 2584 c-141 -96 -184 -202 -123 -302 35 -58 74 -74 165 -69 99 4 170 36 252 110 78 72 113 129 113 187 l0 46 -102 12 c-57 6 -128 18 -158 26 -30 9 -64 18 -75 21 -13 3 -39 -8 -72 -31z"/>
<path d="M470 1346 c-75 -16 -169 -50 -217 -78 l-33 -20 0 -142 0 -142 -28 -16 c-49 -29 -129 -115 -152 -164 -44 -89 -37 -177 19 -266 37 -59 91 -95 164 -110 83 -17 150 -1 290 70 4 2 7 -17 7 -43 0 -26 8 -62 20 -84 19 -38 72 -91 91 -91 5 0 9 -20 9 -44 0 -44 0 -45 -36 -48 -70 -6 -74 -68 -5 -68 38 0 40 -2 43 -32 2 -26 8 -34 27 -36 26 -4 41 12 41 45 0 18 7 22 36 25 47 4 68 32 40 54 -11 8 -32 14 -48 14 -26 0 -28 2 -28 43 1 37 5 45 39 68 43 30 81 99 81 147 0 38 0 37 48 13 131 -66 275 -48 375 48 141 133 93 322 -117 464 l-48 32 1 125 c1 69 -2 130 -7 137 -11 17 -127 70 -197 89 -82 22 -327 28 -415 10z"/>
<path d="M8723 1271 c6 -101 42 -218 90 -300 31 -51 138 -161 157 -161 5 0 -2 -16 -15 -36 -34 -50 -48 -109 -42 -175 6 -65 26 -111 73 -159 31 -33 33 -37 23 -78 -25 -111 65 -222 178 -222 113 1 193 96 180 213 -6 46 -4 53 25 86 78 89 94 204 42 310 l-30 61 38 27 c115 79 194 246 213 451 l6 72 -472 0 -472 0 6 -89z"/>
<path d="M2101 1338 c-63 -4 -132 -13 -152 -18 -40 -11 -79 -51 -79 -80 0 -26 39 -111 66 -143 34 -41 30 -74 -16 -132 -76 -95 -75 -94 -116 -340 l-38 -235 -27 0 c-16 0 -40 -12 -58 -29 -26 -24 -31 -36 -31 -76 0 -38 5 -52 29 -76 24 -23 38 -29 73 -29 85 1 133 81 94 158 -13 26 -10 33 83 177 l96 150 3 -199 2 -199 -35 -31 c-69 -60 -51 -162 32 -185 108 -30 185 113 99 184 l-24 20 69 175 c38 96 73 184 77 194 6 14 21 -45 51 -193 l42 -213 -20 -15 c-86 -60 -45 -193 59 -193 104 0 145 133 59 193 l-20 15 42 211 c23 116 43 210 45 208 2 -2 37 -85 78 -186 57 -139 72 -183 61 -187 -25 -10 -48 -56 -48 -96 0 -29 7 -47 28 -68 35 -37 73 -45 119 -26 76 32 87 138 19 181 l-32 20 -1 194 c0 107 3 191 8 187 4 -4 48 -71 98 -149 88 -137 91 -143 78 -169 -40 -77 9 -157 94 -158 35 0 49 6 73 29 24 24 29 38 29 76 0 40 -5 52 -31 76 -18 17 -42 29 -58 29 l-27 0 -38 235 c-41 246 -40 245 -116 340 -45 57 -50 89 -18 130 11 15 25 46 30 69 34 152 28 157 -217 175 -161 12 -369 12 -534 -1z"/>
<path d="M5487 1333 c-14 -14 -6 -104 14 -158 16 -42 44 -80 115 -157 52 -56 106 -120 119 -142 21 -35 55 -141 55 -169 0 -5 -20 9 -44 31 -24 22 -86 72 -138 111 -52 38 -112 92 -133 119 -54 72 -106 91 -144 53 -11 -11 -38 -20 -70 -23 -84 -8 -121 -59 -121 -166 0 -52 7 -74 61 -183 70 -142 159 -297 201 -350 30 -38 31 -39 22 -132 -7 -67 4 -87 49 -87 23 0 40 10 69 42 21 23 38 45 38 50 0 24 40 2 67 -36 39 -55 84 -81 114 -66 22 12 39 49 39 84 0 20 9 24 80 40 229 49 385 201 464 452 46 150 59 252 60 479 l1 210 -456 3 c-250 1 -459 -1 -462 -5z"/>
<path d="M6964 1327 c-3 -8 -4 -47 -2 -88 l3 -74 53 -3 52 -3 0 -69 c0 -57 3 -70 18 -74 9 -3 27 -24 40 -45 21 -38 22 -50 22 -258 l0 -219 -60 -59 -60 -59 0 -102 c0 -56 3 -109 6 -118 5 -13 23 -16 98 -16 98 0 116 7 116 47 0 21 4 23 60 23 56 0 60 -2 60 -23 0 -41 17 -47 130 -47 113 0 130 6 130 47 0 21 4 23 60 23 56 0 60 -2 60 -23 0 -40 18 -47 116 -47 75 0 93 3 98 16 3 9 6 62 6 118 l0 102 -60 59 -60 59 0 219 c0 208 1 220 23 258 12 21 30 42 40 45 14 4 17 17 17 74 l0 69 53 3 52 3 0 85 0 85 -533 3 c-440 2 -533 0 -538 -11z"/>
<path d="M3457 1310 c-38 -30 -34 -51 17 -98 47 -44 106 -62 200 -62 29 0 101 -3 159 -6 l106 -7 -65 -22 c-92 -31 -109 -51 -108 -124 1 -46 8 -71 32 -114 l31 -54 -31 -29 c-54 -52 -73 -100 -73 -189 0 -66 5 -90 27 -138 33 -70 113 -157 189 -204 l57 -35 -20 -34 c-46 -78 13 -184 102 -184 81 0 130 49 130 128 0 24 -8 49 -20 65 l-20 25 55 31 c74 42 157 127 191 197 25 52 29 70 29 149 0 81 -3 95 -28 138 -15 26 -39 54 -52 63 l-23 15 29 47 c37 61 49 150 25 187 -19 29 -76 60 -131 72 -37 7 -33 8 45 14 47 4 121 7 166 8 102 1 169 21 222 67 49 42 53 64 15 94 -23 18 -36 21 -73 16 -44 -6 -477 -27 -555 -27 -78 0 -501 20 -550 26 -42 6 -55 3 -78 -15z"/>
</g>
<g id="layer102" fill="#fbfbfb" stroke="none">
<path d="M2273 3093 c4 -3 10 -3 14 0 3 4 0 7 -7 7 -7 0 -10 -3 -7 -7z"/>
<path d="M573 3063 c4 -3 10 -3 14 0 3 4 0 7 -7 7 -7 0 -10 -3 -7 -7z"/>
<path d="M2160 3045 c-161 -27 -264 -64 -258 -93 5 -23 33 -21 148 12 207 57 452 57 660 0 115 -33 143 -35 148 -12 4 21 -21 34 -107 59 -165 48 -423 63 -591 34z"/>
<path d="M5728 3043 c123 -2 321 -2 440 0 119 1 19 2 -223 2 -242 0 -340 -1 -217 -2z"/>
<path d="M7243 3043 c141 -2 373 -2 515 0 141 1 25 2 -258 2 -283 0 -399 -1 -257 -2z"/>
<path d="M9652 3030 c0 -14 2 -19 5 -12 2 6 2 18 0 25 -3 6 -5 1 -5 -13z"/>
<path d="M6280 2853 c0 -370 -57 -582 -196 -733 -52 -56 -172 -130 -210 -130 -16 0 -18 -28 -5 -49 7 -11 20 -10 79 8 210 63 347 276 396 615 14 93 18 191 17 389 l-1 77 -40 0 -40 0 0 -177z"/>
<path d="M3444 3008 c-4 -7 -3 -8 4 -4 12 7 16 16 8 16 -3 0 -8 -5 -12 -12z"/>
<path d="M3633 3013 c4 -3 10 -3 14 0 3 4 0 7 -7 7 -7 0 -10 -3 -7 -7z"/>
<path d="M1894 2998 c-4 -7 -3 -8 4 -4 7 4 12 9 12 12 0 8 -9 4 -16 -8z"/>
<path d="M224 2948 c-4 -7 -3 -8 4 -4 12 7 16 16 8 16 -3 0 -8 -5 -12 -12z"/>
<path d="M2238 2930 c-78 -9 -221 -40 -270 -59 -19 -7 -28 -18 -28 -32 0 -25 13 -24 160 12 82 20 120 23 280 23 160 0 198 -3 280 -23 52 -13 110 -26 128 -28 31 -5 33 -3 30 17 -4 28 -41 42 -178 70 -114 23 -296 32 -402 20z"/>
<path d="M7086 2892 c-18 -30 13 -32 420 -30 356 3 409 5 409 18 0 13 -54 15 -412 18 -226 1 -414 -1 -417 -6z"/>
<path d="M1081 2874 c0 -11 3 -14 6 -6 3 7 2 16 -1 19 -3 4 -6 -2 -5 -13z"/>
<path d="M1081 2834 c0 -11 3 -14 6 -6 3 7 2 16 -1 19 -3 4 -6 -2 -5 -13z"/>
<path d="M793 2833 c4 -3 10 -3 14 0 3 4 0 7 -7 7 -7 0 -10 -3 -7 -7z"/>
<path d="M628 2823 c12 -2 32 -2 45 0 12 2 2 4 -23 4 -25 0 -35 -2 -22 -4z"/>
<path d="M1082 2750 c0 -14 2 -19 5 -12 2 6 2 18 0 25 -3 6 -5 1 -5 -13z"/>
<path d="M503 2753 c4 -3 10 -3 14 0 3 4 0 7 -7 7 -7 0 -10 -3 -7 -7z"/>
<path d="M1980 2745 c-10 -12 -10 -18 0 -30 11 -13 68 -15 400 -15 332 0 389 2 400 15 10 12 10 18 0 30 -11 13 -68 15 -400 15 -332 0 -389 -2 -400 -15z"/>
<path d="M648 2743 c7 -3 16 -2 19 1 4 3 -2 6 -13 5 -11 0 -14 -3 -6 -6z"/>
<path d="M7125 2739 c-4 -6 -3 -15 2 -20 5 -5 162 -8 379 -7 320 3 369 5 369 18 0 13 -49 15 -372 18 -262 1 -374 -1 -378 -9z"/>
<path d="M1080 2710 c0 -7 3 -10 7 -7 3 4 3 10 0 14 -4 3 -7 0 -7 -7z"/>
<path d="M813 2703 c4 -3 10 -3 14 0 3 4 0 7 -7 7 -7 0 -10 -3 -7 -7z"/>
<path d="M5293 2703 c4 -3 10 -3 14 0 3 4 0 7 -7 7 -7 0 -10 -3 -7 -7z"/>
<path d="M573 2693 c4 -3 10 -3 14 0 3 4 0 7 -7 7 -7 0 -10 -3 -7 -7z"/>
<path d="M718 2693 c7 -3 16 -2 19 1 4 3 -2 6 -13 5 -11 0 -14 -3 -6 -6z"/>
<path d="M1065 2690 c3 -5 8 -10 11 -10 3 0 2 5 -1 10 -3 6 -8 10 -11 10 -3 0 -2 -4 1 -10z"/>
<path d="M5174 2668 c-4 -7 -3 -8 4 -4 7 4 12 9 12 12 0 8 -9 4 -16 -8z"/>
<path d="M7160 2656 c0 -8 6 -16 14 -19 21 -8 610 -9 641 -1 14 3 25 12 25 20 0 12 -56 14 -340 14 -284 0 -340 -2 -340 -14z"/>
<path d="M1892 2635 c-17 -20 -17 -20 6 -1 22 19 22 19 22 -2 0 -17 12 -25 68 -41 253 -74 531 -74 785 0 56 16 67 23 67 41 0 21 0 21 28 -3 l27 -24 -22 25 c-28 32 -52 34 -132 9 -211 -65 -511 -65 -722 0 -77 24 -104 23 -127 -4z"/>
<path d="M3943 2643 c81 -2 213 -2 295 0 81 1 14 3 -148 3 -162 0 -229 -2 -147 -3z"/>
<path d="M5500 2636 c0 -2 8 -10 18 -17 15 -13 16 -12 3 4 -13 16 -21 21 -21 13z"/>
<path d="M1013 2623 c4 -3 10 -3 14 0 3 4 0 7 -7 7 -7 0 -10 -3 -7 -7z"/>
<path d="M588 2613 c7 -3 16 -2 19 1 4 3 -2 6 -13 5 -11 0 -14 -3 -6 -6z"/>
<path d="M698 2613 c6 -2 18 -2 25 0 6 3 1 5 -13 5 -14 0 -19 -2 -12 -5z"/>
<path d="M1205 2600 c3 -5 8 -10 11 -10 3 0 2 5 -1 10 -3 6 -8 10 -11 10 -3 0 -2 -4 1 -10z"/>
<path d="M154 2588 c-4 -7 -3 -8 4 -4 12 7 16 16 8 16 -3 0 -8 -5 -12 -12z"/>
<path d="M8885 2580 c10 -11 20 -20 23 -20 3 0 -3 9 -13 20 -10 11 -20 20 -23 20 -3 0 3 -9 13 -20z"/>
<path d="M1185 2580 c3 -5 8 -10 11 -10 3 0 2 5 -1 10 -3 6 -8 10 -11 10 -3 0 -2 -4 1 -10z"/>
<path d="M543 2563 c4 -3 10 -3 14 0 3 4 0 7 -7 7 -7 0 -10 -3 -7 -7z"/>
<path d="M753 2563 c4 -3 10 -3 14 0 3 4 0 7 -7 7 -7 0 -10 -3 -7 -7z"/>
<path d="M1245 2560 c3 -5 8 -10 11 -10 3 0 2 5 -1 10 -3 6 -8 10 -11 10 -3 0 -2 -4 1 -10z"/>
<path d="M1210 2556 c0 -2 8 -10 18 -17 15 -13 16 -12 3 4 -13 16 -21 21 -21 13z"/>
<path d="M3883 2543 c-22 -8 -15 -42 10 -48 12 -3 108 -4 212 -3 l190 3 0 25 0 25 -200 2 c-110 1 -206 -1 -212 -4z"/>
<path d="M5256 2537 c-12 -9 -17 -23 -14 -42 3 -26 8 -30 35 -33 27 -3 35 1 45 24 11 23 10 28 -11 45 -28 23 -32 23 -55 6z"/>
<path d="M1302 2365 c0 -16 2 -22 5 -12 2 9 2 23 0 30 -3 6 -5 -1 -5 -18z"/>
<path d="M1331 2364 c0 -11 3 -14 6 -6 3 7 2 16 -1 19 -3 4 -6 -2 -5 -13z"/>
<path d="M9460 2350 c0 -7 3 -10 7 -7 3 4 3 10 0 14 -4 3 -7 0 -7 -7z"/>
<path d="M4065 2328 c-2 -7 -6 -29 -7 -48 -3 -33 -5 -35 -43 -38 -70 -6 -65 -52 6 -52 37 0 38 0 41 -42 2 -36 7 -44 26 -46 20 -3 22 1 22 42 l0 45 48 3 c39 3 47 6 47 23 0 16 -8 21 -45 25 -45 5 -45 5 -50 50 -4 32 -10 46 -23 48 -9 2 -19 -2 -22 -10z"/>
<path d="M1244 2228 l-19 -23 23 19 c21 18 27 26 19 26 -2 0 -12 -10 -23 -22z"/>
<path d="M90 2226 c0 -2 8 -10 18 -17 15 -13 16 -12 3 4 -13 16 -21 21 -21 13z"/>
<path d="M5442 2188 c-23 -23 -11 -70 31 -115 21 -24 61 -31 72 -12 13 20 -6 78 -34 108 -31 33 -50 38 -69 19z"/>
<path d="M7134 2168 c-4 -7 -3 -8 4 -4 12 7 16 16 8 16 -3 0 -8 -5 -12 -12z"/>
<path d="M7165 2169 c-4 -6 -3 -15 2 -20 5 -5 146 -8 339 -7 285 3 329 5 329 18 0 13 -45 15 -332 18 -233 1 -334 -1 -338 -9z"/>
<path d="M7855 2170 c3 -5 8 -10 11 -10 3 0 2 5 -1 10 -3 6 -8 10 -11 10 -3 0 -2 -4 1 -10z"/>
<path d="M233 2153 c4 -3 10 -3 14 0 3 4 0 7 -7 7 -7 0 -10 -3 -7 -7z"/>
<path d="M7050 2065 c0 -13 57 -15 450 -15 393 0 450 2 450 15 0 13 -57 15 -450 15 -393 0 -450 -2 -450 -15z"/>
<path d="M2032 2045 c0 -16 2 -22 5 -12 2 9 2 23 0 30 -3 6 -5 -1 -5 -18z"/>
<path d="M2722 2045 c0 -16 2 -22 5 -12 2 9 2 23 0 30 -3 6 -5 -1 -5 -18z"/>
<path d="M560 2016 c0 -2 8 -10 18 -17 15 -13 16 -12 3 4 -13 16 -21 21 -21 13z"/>
<path d="M704 1956 c-3 -8 -4 -31 -2 -52 3 -36 4 -35 8 14 5 53 4 63 -6 38z"/>
<path d="M785 1860 c3 -5 8 -10 11 -10 3 0 2 5 -1 10 -3 6 -8 10 -11 10 -3 0 -2 -4 1 -10z"/>
<path d="M9193 1843 c4 -3 10 -3 14 0 3 4 0 7 -7 7 -7 0 -10 -3 -7 -7z"/>
<path d="M702 1785 c0 -16 2 -22 5 -12 2 9 2 23 0 30 -3 6 -5 -1 -5 -18z"/>
<path d="M9652 1330 c0 -19 2 -27 5 -17 2 9 2 25 0 35 -3 9 -5 1 -5 -18z"/>
<path d="M2213 1343 c4 -3 10 -3 14 0 3 4 0 7 -7 7 -7 0 -10 -3 -7 -7z"/>
<path d="M2533 1343 c4 -3 10 -3 14 0 3 4 0 7 -7 7 -7 0 -10 -3 -7 -7z"/>
<path d="M2845 1300 c3 -5 8 -10 11 -10 3 0 2 5 -1 10 -3 6 -8 10 -11 10 -3 0 -2 -4 1 -10z"/>
<path d="M480 1284 c-85 -18 -154 -44 -143 -54 21 -21 139 -42 269 -47 146 -6 235 3 329 34 l50 16 -40 18 c-107 47 -329 63 -465 33z"/>
<path d="M8780 1286 c0 -45 34 -178 59 -233 40 -85 120 -169 194 -203 l59 -26 -37 -29 c-45 -33 -85 -114 -85 -171 0 -57 44 -139 91 -171 42 -28 46 -38 24 -67 -21 -28 -19 -95 5 -133 22 -36 82 -60 124 -49 80 20 118 112 76 183 -15 26 -18 39 -10 41 25 9 82 67 101 103 21 42 26 130 9 174 -5 14 -30 47 -54 73 l-45 48 59 27 c71 33 137 103 180 190 34 72 60 165 60 219 l0 38 -405 0 c-342 0 -405 -2 -405 -14z"/>
<path d="M2185 1284 c-189 -13 -268 -31 -246 -58 4 -6 14 -28 21 -49 7 -23 21 -42 34 -47 69 -26 427 -38 621 -20 155 14 164 17 170 48 3 15 10 42 16 60 6 19 9 35 7 38 -18 18 -469 38 -623 28z"/>
<path d="M5545 1243 c12 -63 42 -109 139 -212 125 -133 165 -222 166 -369 1 -31 7 -68 15 -82 19 -33 19 -74 0 -90 -20 -16 -45 3 -45 34 0 54 -107 173 -247 275 -40 29 -97 80 -128 113 -30 34 -57 59 -60 57 -2 -3 1 -20 7 -37 9 -24 10 -37 2 -50 -25 -39 -84 -16 -84 34 0 21 -5 24 -33 24 -47 0 -69 -28 -75 -93 -3 -43 2 -64 30 -127 44 -96 173 -323 213 -376 50 -65 60 -98 45 -145 -19 -56 -6 -58 31 -5 31 44 35 46 81 46 49 0 54 -3 91 -59 30 -47 47 -51 47 -11 0 46 16 70 48 70 104 1 258 68 341 150 138 135 207 362 218 713 l6 177 -408 0 -407 0 7 -37z m-227 -415 c27 -27 1 -78 -38 -78 -29 0 -54 43 -40 69 12 24 58 29 78 9z m216 -396 c20 -45 19 -70 -6 -86 -13 -8 -23 -8 -35 0 -29 18 -63 75 -63 105 0 64 73 51 104 -19z"/>
<path d="M7020 1253 l0 -28 480 0 480 0 0 28 0 27 -480 0 -480 0 0 -27z"/>
<path d="M3520 1251 c34 -28 103 -41 213 -41 126 0 262 -17 311 -39 40 -17 43 -17 83 1 48 21 188 38 323 38 107 0 158 11 192 41 l23 20 -30 -6 c-16 -4 -133 -10 -260 -15 -130 -4 -243 -13 -261 -19 -23 -9 -38 -9 -60 0 -17 7 -125 15 -259 20 -126 4 -246 11 -265 14 l-35 6 25 -20z"/>
<path d="M1084 1120 c0 -69 1 -97 3 -62 2 34 2 90 0 125 -2 34 -3 6 -3 -63z"/>
<path d="M290 1147 l0 -36 78 -25 c173 -54 401 -55 573 0 l79 25 0 36 c0 29 -3 34 -17 28 -96 -38 -173 -48 -348 -49 -153 0 -191 3 -255 21 -41 12 -83 24 -92 28 -15 6 -18 1 -18 -28z"/>
<path d="M7130 1115 l0 -45 370 0 370 0 0 45 0 45 -370 0 -370 0 0 -45z"/>
<path d="M3808 1143 c6 -2 18 -2 25 0 6 3 1 5 -13 5 -14 0 -19 -2 -12 -5z"/>
<path d="M4338 1143 c6 -2 18 -2 25 0 6 3 1 5 -13 5 -14 0 -19 -2 -12 -5z"/>
<path d="M3935 1069 c-63 -15 -95 -30 -106 -50 -9 -18 0 -19 256 -19 218 0 265 2 265 14 0 7 -24 24 -52 37 -45 19 -72 23 -188 25 -74 2 -153 -1 -175 -7z"/>
<path d="M2020 1022 l0 -39 83 -6 c45 -4 170 -7 277 -7 107 0 232 3 278 7 l82 6 0 39 0 39 -107 -8 c-60 -4 -173 -8 -253 -8 -80 0 -193 4 -252 8 l-108 8 0 -39z"/>
<path d="M290 1014 c0 -30 4 -34 53 -52 94 -35 168 -46 312 -46 144 0 218 11 313 46 49 18 52 21 52 55 0 30 -3 34 -17 28 -153 -65 -449 -75 -630 -22 l-83 24 0 -33z"/>
<path d="M5435 1010 c3 -5 8 -10 11 -10 3 0 2 5 -1 10 -3 6 -8 10 -11 10 -3 0 -2 -4 1 -10z"/>
<path d="M7180 1005 c0 -3 7 -17 16 -30 l16 -25 288 0 288 0 16 25 c9 13 16 27 16 30 0 3 -144 5 -320 5 -176 0 -320 -2 -320 -5z"/>
<path d="M6400 980 c0 -7 3 -10 7 -7 3 4 3 10 0 14 -4 3 -7 0 -7 -7z"/>
<path d="M5685 940 c3 -5 8 -10 11 -10 3 0 2 5 -1 10 -3 6 -8 10 -11 10 -3 0 -2 -4 1 -10z"/>
<path d="M3840 926 c0 -8 15 -31 34 -50 l33 -36 175 0 c163 0 177 2 202 21 14 11 33 34 41 50 l16 29 -251 0 c-210 0 -250 -2 -250 -14z"/>
<path d="M1008 915 c-35 -19 -183 -55 -228 -55 -74 -1 -80 -6 -80 -74 0 -76 30 -141 92 -205 145 -147 347 -155 448 -19 34 46 39 131 12 184 -25 48 -83 110 -145 153 -51 35 -61 36 -99 16z"/>
<path d="M1938 886 c-37 -43 -37 -44 -15 -49 126 -31 581 -42 786 -18 159 18 157 17 111 69 l-38 42 -124 -11 c-116 -11 -560 -6 -648 6 -32 5 -39 1 -72 -39z"/>
<path d="M218 890 c-87 -58 -148 -148 -148 -220 0 -41 32 -115 63 -148 61 -66 170 -76 277 -26 77 36 156 105 199 172 27 42 31 58 31 115 l0 65 -67 6 c-56 5 -168 29 -288 62 -13 3 -37 -6 -67 -26z"/>
<path d="M7210 694 c0 -202 2 -225 16 -220 9 3 139 6 290 6 l274 0 0 220 0 220 -290 0 -290 0 0 -226z"/>
<path d="M9494 888 c-4 -7 -3 -8 4 -4 12 7 16 16 8 16 -3 0 -8 -5 -12 -12z"/>
<path d="M99 873 c-13 -16 -12 -17 4 -4 9 7 17 15 17 17 0 8 -8 3 -21 -13z"/>
<path d="M9464 858 c-4 -7 -3 -8 4 -4 12 7 16 16 8 16 -3 0 -8 -5 -12 -12z"/>
<path d="M3825 830 c3 -5 8 -10 11 -10 3 0 2 5 -1 10 -3 6 -8 10 -11 10 -3 0 -2 -4 1 -10z"/>
<path d="M4375 790 c10 -11 20 -20 23 -20 3 0 -3 9 -13 20 -10 11 -20 20 -23 20 -3 0 3 -9 13 -20z"/>
<path d="M3892 783 c-42 -8 -89 -67 -103 -127 -30 -134 59 -276 224 -362 l75 -38 68 34 c184 93 279 277 212 410 -42 81 -53 85 -266 86 -103 1 -197 0 -210 -3z m212 -159 c9 -8 16 -31 16 -50 0 -33 1 -34 40 -34 27 0 43 -5 46 -15 10 -24 -15 -45 -52 -45 -32 0 -34 -2 -34 -34 0 -37 -21 -62 -45 -52 -10 3 -15 19 -15 46 0 40 0 40 -39 40 -42 0 -65 18 -55 44 4 11 19 16 50 16 l44 0 0 44 c0 26 5 46 13 49 6 3 13 6 14 6 1 1 9 -6 17 -15z"/>
<path d="M1890 772 c0 -4 -9 -59 -20 -122 -11 -63 -20 -121 -20 -129 0 -8 36 41 80 110 53 83 75 126 67 130 -19 10 -107 19 -107 11z"/>
<path d="M2807 770 c-27 -5 -50 -10 -52 -12 -2 -2 31 -58 73 -125 42 -67 78 -118 80 -114 2 5 -6 63 -18 128 -11 66 -20 123 -20 127 0 3 -3 5 -7 5 -5 -1 -30 -5 -56 -9z"/>
<path d="M5715 760 c3 -5 8 -10 11 -10 3 0 2 5 -1 10 -3 6 -8 10 -11 10 -3 0 -2 -4 1 -10z"/>
<path d="M2090 573 l1 -178 69 175 c39 96 70 176 70 178 0 1 -31 2 -70 2 l-70 0 0 -177z"/>
<path d="M2544 744 c-7 -3 13 -64 53 -161 35 -86 65 -159 68 -161 3 -3 5 70 5 161 l0 167 -57 -1 c-32 0 -63 -3 -69 -5z"/>
<path d="M2303 718 c3 -13 20 -95 37 -183 18 -88 35 -163 39 -167 4 -4 22 70 41 165 18 94 35 180 38 190 4 15 -5 17 -78 17 -80 0 -82 -1 -77 -22z"/>
<path d="M1331 664 c0 -11 3 -14 6 -6 3 7 2 16 -1 19 -3 4 -6 -2 -5 -13z"/>
<path d="M636 605 c-36 -47 -56 -107 -56 -167 0 -45 4 -54 40 -90 42 -42 64 -44 104 -9 62 54 60 141 -6 238 -24 34 -46 63 -49 63 -4 0 -19 -16 -33 -35z"/>
<path d="M9460 610 c0 -7 3 -10 7 -7 3 4 3 10 0 14 -4 3 -7 0 -7 -7z"/>
<path d="M7165 420 l-29 -30 364 0 364 0 -29 30 -29 30 -306 0 -306 0 -29 -30z"/>
<path d="M9350 400 c0 -7 3 -10 7 -7 3 4 3 10 0 14 -4 3 -7 0 -7 -7z"/>
<path d="M4344 358 c-4 -7 -3 -8 4 -4 7 4 12 9 12 12 0 8 -9 4 -16 -8z"/>
<path d="M5375 330 c3 -5 8 -10 11 -10 3 0 2 5 -1 10 -3 6 -8 10 -11 10 -3 0 -2 -4 1 -10z"/>
<path d="M1722 318 c-28 -28 -7 -78 33 -78 27 0 45 18 45 45 0 27 -18 45 -45 45 -12 0 -26 -5 -33 -12z"/>
<path d="M2972 318 c-28 -28 -7 -78 33 -78 27 0 45 18 45 45 0 27 -18 45 -45 45 -12 0 -26 -5 -33 -12z"/>
<path d="M7090 265 l0 -65 50 0 50 0 0 34 c0 43 9 46 120 46 111 0 120 -3 120 -46 l0 -34 70 0 70 0 0 34 c0 43 9 46 120 46 111 0 120 -3 120 -46 l0 -34 50 0 50 0 0 65 0 65 -410 0 -410 0 0 -65z"/>
<path d="M9000 310 c0 -7 3 -10 7 -7 3 4 3 10 0 14 -4 3 -7 0 -7 -7z"/>
<path d="M704 210 c1 -43 2 -45 31 -46 27 -1 27 0 3 3 -24 4 -27 9 -31 46 l-4 42 1 -45z"/>
<path d="M2624 248 c-4 -7 -3 -8 4 -4 7 4 12 9 12 12 0 8 -9 4 -16 -8z"/>
<path d="M1824 208 c-4 -7 -3 -8 4 -4 7 4 12 9 12 12 0 8 -9 4 -16 -8z"/>
<path d="M2676 207 c-12 -9 -17 -23 -14 -42 2 -24 8 -31 31 -33 52 -6 76 38 39 71 -22 20 -33 21 -56 4z"/>
<path d="M2925 210 c3 -5 8 -10 11 -10 3 0 2 5 -1 10 -3 6 -8 10 -11 10 -3 0 -2 -4 1 -10z"/>
<path d="M7278 213 c17 -2 47 -2 65 0 17 2 3 4 -33 4 -36 0 -50 -2 -32 -4z"/>
<path d="M7658 213 c17 -2 47 -2 65 0 17 2 3 4 -33 4 -36 0 -50 -2 -32 -4z"/>
<path d="M2026 184 c-34 -34 -9 -78 41 -72 23 2 29 9 31 33 6 46 -40 71 -72 39z"/>
<path d="M4045 175 c-14 -13 -25 -33 -25 -45 0 -29 35 -60 68 -60 57 0 83 69 42 110 -27 27 -56 25 -85 -5z"/>
<path d="M2590 170 c0 -7 3 -10 7 -7 3 4 3 10 0 14 -4 3 -7 0 -7 -7z"/>
<path d="M588 163 c12 -2 30 -2 40 0 9 3 -1 5 -23 4 -22 0 -30 -2 -17 -4z"/>
<path d="M2160 150 c0 -7 3 -10 7 -7 3 4 3 10 0 14 -4 3 -7 0 -7 -7z"/>
<path d="M2345 136 c-18 -27 -11 -53 16 -61 26 -8 56 2 63 22 9 22 -20 63 -44 63 -11 0 -26 -11 -35 -24z"/>
<path d="M5655 120 c3 -5 8 -10 11 -10 3 0 2 5 -1 10 -3 6 -8 10 -11 10 -3 0 -2 -4 1 -10z"/>
<path d="M702 75 c0 -16 2 -22 5 -12 2 9 2 23 0 30 -3 6 -5 -1 -5 -18z"/>
<path d="M5685 90 c3 -5 8 -10 11 -10 3 0 2 5 -1 10 -3 6 -8 10 -11 10 -3 0 -2 -4 1 -10z"/>
<path d="M2053 43 c4 -3 10 -3 14 0 3 4 0 7 -7 7 -7 0 -10 -3 -7 -7z"/>
</g>


</svg>