<svg id="Layer_10" data-name="Layer 10" xmlns="http://www.w3.org/2000/svg" viewBox="0 0 248.72 249.34"><defs><style>.cls-1{fill:#101010;}.cls-2{fill:#fbfcfc;}</style></defs><title>nq</title><g id="layer101"><path class="cls-1" d="M92.24,286.66c-2.74-2.74-1.18-20.38,2.74-31,3.14-8.23,8.62-15.68,22.54-30.76,10.19-11,20.77-23.52,23.32-27.83,4.11-6.86,10.77-27.63,10.77-33.12,0-1-3.92,1.77-8.62,6.08s-16.85,14.11-27,21.75c-10.19,7.45-22,18-26.06,23.32C79.31,229.25,69.12,233,61.67,225.52c-2.16-2.15-7.45-3.92-13.72-4.5-16.46-1.57-23.71-11.57-23.71-32.53,0-10.19,1.37-14.5,12-35.86C49.91,124.8,67.35,94.43,75.58,84c5.88-7.44,6.08-7.64,4.31-25.86-1.37-13.13.79-17,9.61-17,4.5,0,7.83,2,13.52,8.23,4.11,4.51,7.44,8.82,7.44,9.8,0,4.7,7.84.39,13.13-7.06,7.64-10.77,16.46-15.87,22.34-12.93,4.31,2.35,7.64,9.6,7.64,16.46,0,3.92,1.77,4.7,15.68,7.84,44.87,9.6,75.44,39.39,90.92,88.57,9,29.39,11.56,49.38,11.76,93.86l.2,41.15-89.36.59C133.78,287.84,92.83,287.45,92.24,286.66Z" transform="translate(-24.24 -38.35)"/></g><g id="layer102"><path class="cls-2" d="M103.6,269c2.36-12.35,8.23-21.36,27.24-41.55,24.5-26.06,32.33-43.5,32.53-72.3.2-6.08,1.37-13.33,2.94-16.07,3.72-6.47,3.72-14.5,0-17.64-3.92-3.13-8.82.59-8.82,6.66,0,10.59-21,33.9-48.4,53.89A212.69,212.69,0,0,0,84,204.16c-5.88,6.67-11.17,11.57-11.76,11.17-.39-.58.2-3.92,1.37-7.25,1.77-4.7,2-7.25.4-9.79-4.9-7.65-16.46-3.14-16.46,6.66,0,4.11-1,4.7-6.47,4.7-9.21,0-13.52-5.49-14.7-18.22-.59-8.43.39-12.54,5.88-24.89,8.62-18.81,33.9-63.29,41.74-73.68,9.8-12.74,11.76-19.2,8.82-28.41-3.73-11-1.18-11.37,6.07-1,6.08,8.62,6.86,9,15.87,9,9.61,0,10.59-.59,17.84-11.56,5.87-9.21,9.21-10,9.21-2.15,0,9,3.13,13.71,9.4,13.71,20.38.2,50.56,13.33,66.82,29.4,27,26.45,40.56,70.93,42.72,139.71l1.18,34.69H102.23ZM59.12,187.7c5.29-5.29.2-15.28-7.44-15.28-5.69,0-10.59,8.43-7.84,13.52C46.19,190.64,55.2,191.62,59.12,187.7Zm42.33-77.59c3.92-8.82,3.72-13.72-1.18-16.86-2.54-1.56-4.5-1.56-6.86,0-5.68,3.53-12.34,14.7-12.34,20.58C81.07,126.37,95.37,123.82,101.45,110.11Z" transform="translate(-24.24 -38.35)"/><path class="cls-2" d="M271.15,217.49c0-1.37.58-2,1.37-1.37a2.34,2.34,0,0,1,0,2.74C271.73,219.45,271.15,218.86,271.15,217.49Z" transform="translate(-24.24 -38.35)"/></g></svg>