<svg id="Layer_8" data-name="Layer 8" xmlns="http://www.w3.org/2000/svg" viewBox="0 0 300 300"><defs><style>.cls-1{fill:#101010;}.cls-2{fill:#fbfcfc;}</style></defs><title>wp</title><g id="layer101"><path class="cls-1" d="M59,269.14c1.18-19.8,8.23-42.72,17.64-58.79,6.07-10,27-31.55,30.76-31.55,1,0-.39-3.13-2.94-7.05-6.66-9.8-9.4-21.36-8.23-34.3,1.18-12.73,5.1-21.75,14.31-31.15,6.07-6.47,6.47-7.25,4.51-15.29-4.9-21.75,12.73-43.5,34.88-43.5,22.14.2,37.82,18.81,35.27,41.74-1.18,9-.79,10.38,4.9,16.85,15.28,17.44,18.42,40,8.23,60.75l-5.88,12,7.44,5.29c22.54,15.48,38,48.21,41.74,88.38l1.18,14.11h-185Z"/></g><g id="layer102"><path class="cls-2" d="M70.18,272.07c0-8.81,6.67-34.87,11.56-45.65,7.84-16.66,23.52-33.12,38-39.78l11.56-5.1-7.25-5.68c-8.82-6.47-16.66-22.34-16.66-33.51s8.63-27.23,17.84-33.51c8.23-5.48,9-7.44,4.7-13.12-4.12-5.49-3.72-18.62,1-26.07,4.31-7.05,16.07-11.75,24.3-9.6a24.26,24.26,0,0,1,14.89,35.86c-2.94,5.1-3.53,7.64-2,8,4.9,1.76,16.07,13.12,19.79,20.18,4.12,8.23,5.1,25.47,1.77,34.1-1,2.74-5.88,9.21-10.59,14.3l-8.81,9.41,11.56,5.29c13.91,6.46,26.84,20.18,35.27,37.23,6.66,14.11,11.76,32.33,11.76,42.91v7.45H149.54C82.53,274.82,70.18,274.43,70.18,272.07Z"/></g></svg>